<mxfile host="app.diagrams.net" modified="2024-03-03T04:24:24.291Z" agent="Mozilla/5.0 (Windows NT 10.0; Win64; x64) AppleWebKit/537.36 (KHTML, like Gecko) Chrome/122.0.0.0 Safari/537.36" version="24.0.1" etag="wMbpZf7O9hdmrE_jit7D" type="github">
  <diagram name="ページ1" id="Uce5Cd68s8lFdpTp4l-E">
    <mxGraphModel>
      <root>
        <mxCell id="0" />
        <mxCell id="1" parent="0" />
      </root>
    </mxGraphModel>
  </diagram>
</mxfile>
